<?xml version="1.0" encoding="UTF-8" standalone="no"?>
<!DOCTYPE svg PUBLIC "-//W3C//DTD SVG 1.1//EN" "http://www.w3.org/Graphics/SVG/1.1/DTD/svg11.dtd">
<svg width="100%" height="100%" viewBox="0 0 400 200" version="1.1" xmlns="http://www.w3.org/2000/svg" xmlns:xlink="http://www.w3.org/1999/xlink" xml:space="preserve" xmlns:serif="http://www.serif.com/" style="fill-rule:evenodd;clip-rule:evenodd;stroke-linejoin:round;stroke-miterlimit:2;">
    <rect x="-2.449" y="-2.82" width="405.227" height="205.446" style="fill:rgb(14,20,31);"/>
    <g transform="matrix(1,0,0,1,7.17937,-30.4693)">
        <path d="M29.687,83.112L29.687,70.121L21.14,70.121L21.14,83.112L15.285,83.112L15.285,53.561L21.14,53.561L21.14,65.313L29.687,65.313L29.687,53.561L35.542,53.561L35.542,83.112L29.687,83.112Z" style="fill:rgb(0,46,153);fill-rule:nonzero;"/>
        <path d="M55.841,76.339L46.119,76.339L44.281,83.112L38.234,83.112L47.486,53.561L54.666,53.561L63.896,83.112L57.678,83.112L55.841,76.339ZM47.166,71.958L54.751,71.958L50.969,57.941L47.166,71.958Z" style="fill:rgb(0,46,153);fill-rule:nonzero;"/>
        <path d="M88.213,62.984C88.213,65.277 87.721,67.154 86.738,68.614C85.755,70.074 84.391,71.15 82.646,71.841C80.901,72.532 78.882,72.877 76.589,72.877L73.191,72.877L73.191,83.112L67.337,83.112L67.337,53.561L76.033,53.561C79.865,53.561 82.853,54.337 84.997,55.89C87.141,57.443 88.213,59.807 88.213,62.984ZM82.144,63.027C82.144,61.203 81.624,59.882 80.584,59.063C79.545,58.244 78.099,57.834 76.247,57.834L73.191,57.834L73.191,68.54L76.418,68.54C78.156,68.54 79.545,68.123 80.584,67.29C81.624,66.456 82.144,65.035 82.144,63.027Z" style="fill:rgb(0,46,153);fill-rule:nonzero;"/>
        <path d="M113.854,62.984C113.854,65.277 113.362,67.154 112.379,68.614C111.396,70.074 110.032,71.15 108.287,71.841C106.542,72.532 104.523,72.877 102.23,72.877L98.832,72.877L98.832,83.112L92.978,83.112L92.978,53.561L101.674,53.561C105.506,53.561 108.494,54.337 110.638,55.89C112.782,57.443 113.854,59.807 113.854,62.984ZM107.785,63.027C107.785,61.203 107.265,59.882 106.225,59.063C105.186,58.244 103.74,57.834 101.888,57.834L98.832,57.834L98.832,68.54L102.059,68.54C103.797,68.54 105.186,68.123 106.225,67.29C107.265,66.456 107.785,65.035 107.785,63.027Z" style="fill:rgb(0,46,153);fill-rule:nonzero;"/>
        <path d="M130.905,71.916L130.905,83.112L125.05,83.112L125.05,71.958L115.285,53.561L121.696,53.561L128.084,67.022L134.537,53.561L140.67,53.561L130.905,71.916Z" style="fill:rgb(0,46,153);fill-rule:nonzero;"/>
        <path d="M182.037,83.112L173.341,58.561C173.426,59.259 173.54,60.245 173.683,61.52C173.825,62.795 173.95,64.227 174.057,65.815C174.163,67.404 174.217,69.024 174.217,70.676L174.217,83.112L169.131,83.112L169.131,53.561L176.567,53.561L185.178,78.069C185.022,76.973 184.837,75.366 184.623,73.251C184.409,71.136 184.302,68.753 184.302,66.104L184.302,53.561L189.388,53.561L189.388,83.112L182.037,83.112Z" style="fill:rgb(0,46,153);fill-rule:nonzero;"/>
        <path d="M202.401,57.877L202.401,65.975L212.871,65.975L212.871,70.228L202.401,70.228L202.401,78.817L215.114,78.817L215.114,83.112L196.546,83.112L196.546,53.561L214.965,53.561L214.366,57.877L202.401,57.877Z" style="fill:rgb(0,46,153);fill-rule:nonzero;"/>
        <path d="M243.384,53.561L239.559,83.112L233.127,83.112L230.542,61.574L227.807,83.112L221.247,83.112L217.7,53.561L223.277,53.561L225.029,77.792L227.849,56.98L233.362,56.98L236.033,77.792L238.213,53.561L243.384,53.561Z" style="fill:rgb(0,46,153);fill-rule:nonzero;"/>
        <path d="M284.751,71.916L284.751,83.112L278.896,83.112L278.896,71.958L269.131,53.561L275.542,53.561L281.931,67.022L288.384,53.561L294.516,53.561L284.751,71.916Z" style="fill:rgb(0,46,153);fill-rule:nonzero;"/>
        <path d="M304.965,57.877L304.965,65.975L315.435,65.975L315.435,70.228L304.965,70.228L304.965,78.817L317.678,78.817L317.678,83.112L299.11,83.112L299.11,53.561L317.529,53.561L316.931,57.877L304.965,57.877Z" style="fill:rgb(0,46,153);fill-rule:nonzero;"/>
        <path d="M337.892,76.339L328.17,76.339L326.332,83.112L320.285,83.112L329.537,53.561L336.717,53.561L345.948,83.112L339.73,83.112L337.892,76.339ZM329.217,71.958L336.802,71.958L333.02,57.941L329.217,71.958Z" style="fill:rgb(0,46,153);fill-rule:nonzero;"/>
        <path d="M369.559,62.3C369.559,64.451 368.943,66.193 367.71,67.525C366.478,68.857 364.972,69.822 363.191,70.42L371.29,83.112L364.58,83.112L357.593,71.339L354.901,71.339L354.901,83.112L349.067,83.112L349.067,53.561L357.764,53.561C361.653,53.561 364.591,54.28 366.578,55.719C368.565,57.158 369.559,59.352 369.559,62.3ZM363.49,62.3C363.49,60.719 363.027,59.572 362.101,58.86C361.176,58.148 359.78,57.792 357.913,57.792L354.901,57.792L354.901,67.193L358.106,67.193C359.829,67.193 361.158,66.812 362.091,66.05C363.024,65.288 363.49,64.038 363.49,62.3Z" style="fill:rgb(0,46,153);fill-rule:nonzero;"/>
    </g>
    <g transform="matrix(3.64265,0,0,3.64265,-30.5039,-126.546)">
        <path d="M24.281,52.92C26.403,52.92 28.188,53.301 29.634,54.063C31.079,54.825 32.173,55.84 32.913,57.108C33.654,58.376 34.025,59.772 34.025,61.296C34.025,62.55 33.811,63.775 33.384,64.971C32.956,66.168 32.262,67.428 31.3,68.753C30.339,70.078 29.067,71.545 27.486,73.155C25.905,74.765 23.953,76.609 21.631,78.689L34.708,78.689L34.089,83.112L15.178,83.112L15.178,78.988C17.728,76.524 19.847,74.419 21.535,72.674C23.223,70.929 24.559,69.423 25.542,68.155C26.525,66.887 27.219,65.748 27.625,64.736C28.031,63.725 28.234,62.72 28.234,61.723C28.234,60.37 27.849,59.302 27.08,58.518C26.311,57.735 25.221,57.343 23.811,57.343C22.572,57.343 21.521,57.582 20.659,58.059C19.797,58.536 18.953,59.309 18.127,60.377L14.58,57.685C15.705,56.189 17.045,55.021 18.597,54.181C20.15,53.34 22.045,52.92 24.281,52.92Z" style="fill:rgb(0,46,153);fill-rule:nonzero;"/>
        <path d="M51.054,52.92C54.459,52.92 57.03,54.263 58.768,56.948C60.506,59.633 61.375,63.411 61.375,68.283C61.375,73.183 60.506,76.987 58.768,79.693C57.03,82.4 54.459,83.753 51.054,83.753C47.636,83.753 45.061,82.4 43.33,79.693C41.599,76.987 40.734,73.183 40.734,68.283C40.734,63.411 41.599,59.633 43.33,56.948C45.061,54.263 47.636,52.92 51.054,52.92ZM51.054,57.108C49.445,57.108 48.23,57.966 47.411,59.683C46.592,61.399 46.183,64.266 46.183,68.283C46.183,71.118 46.318,73.326 46.589,74.907L54.452,58.711C54.067,58.126 53.597,57.713 53.042,57.471C52.486,57.229 51.824,57.108 51.054,57.108ZM55.905,68.283C55.905,66.018 55.819,64.166 55.648,62.728L47.999,78.433C48.369,78.846 48.807,79.138 49.313,79.309C49.819,79.48 50.399,79.565 51.054,79.565C52.678,79.565 53.893,78.711 54.698,77.001C55.502,75.292 55.905,72.386 55.905,68.283Z" style="fill:rgb(0,46,153);fill-rule:nonzero;"/>
        <path d="M75.563,52.92C77.686,52.92 79.47,53.301 80.916,54.063C82.361,54.825 83.455,55.84 84.196,57.108C84.936,58.376 85.307,59.772 85.307,61.296C85.307,62.55 85.093,63.775 84.666,64.971C84.238,66.168 83.544,67.428 82.582,68.753C81.621,70.078 80.349,71.545 78.768,73.155C77.187,74.765 75.235,76.609 72.913,78.689L85.99,78.689L85.371,83.112L66.46,83.112L66.46,78.988C69.01,76.524 71.129,74.419 72.817,72.674C74.505,70.929 75.841,69.423 76.824,68.155C77.807,66.887 78.501,65.748 78.907,64.736C79.313,63.725 79.516,62.72 79.516,61.723C79.516,60.37 79.131,59.302 78.362,58.518C77.593,57.735 76.503,57.343 75.093,57.343C73.854,57.343 72.803,57.582 71.941,58.059C71.079,58.536 70.235,59.309 69.409,60.377L65.862,57.685C66.988,56.189 68.327,55.021 69.879,54.181C71.432,53.34 73.327,52.92 75.563,52.92Z" style="fill:rgb(0,46,153);fill-rule:nonzero;"/>
        <path d="M111.097,53.561L110.435,57.706L99.324,57.706L99.324,65.099C100.107,64.715 100.891,64.444 101.674,64.287C102.458,64.131 103.213,64.052 103.939,64.052C105.492,64.052 106.888,64.43 108.127,65.185C109.366,65.94 110.349,67.026 111.076,68.443C111.802,69.861 112.166,71.56 112.166,73.54C112.166,75.52 111.706,77.279 110.787,78.817C109.869,80.356 108.583,81.563 106.931,82.439C105.278,83.315 103.341,83.753 101.119,83.753C99.11,83.753 97.326,83.383 95.766,82.642C94.206,81.901 92.871,80.904 91.76,79.651L95.05,76.595C96.603,78.433 98.519,79.352 100.798,79.352C102.493,79.352 103.839,78.839 104.837,77.813C105.834,76.787 106.332,75.37 106.332,73.561C106.332,71.552 105.912,70.135 105.072,69.309C104.231,68.483 103.163,68.069 101.866,68.069C100.584,68.069 99.26,68.397 97.892,69.052L93.939,69.052L93.939,53.561L111.097,53.561Z" style="fill:rgb(0,46,153);fill-rule:nonzero;"/>
    </g>
</svg>
